 <svg

          viewBox="0 0 90 34"
          fill="none"
          xmlns="http://www.w3.org/2000/svg"
        >
          <path
            d="M26.7552 23.889C26.0354 24.2563 19.7835 25.514 15.0337 24.2263C11.4853 23.2615 6.75252 20.5067 5.1791 19.556C4.8913 19.3821 4.82707 18.9985 5.03538 18.7346L10.8724 11.3379C11.1199 11.0243 11.6084 11.0543 11.8216 11.3923C12.7668 12.8914 15.1597 16.4461 18.0099 18.8646C21.8333 22.1109 24.9225 23.022 26.7764 23.233C27.0056 23.2591 27.4749 23.5217 26.7552 23.889Z"
            fill="#00D6BC"
          />
          <path
            d="M25.0701 21.3126C24.4782 21.1825 20.2575 18.9325 18.1195 15.9237C16.5804 13.7543 15.1964 10.0956 14.6886 8.67164C14.5757 8.35492 14.7694 8.01724 15.0979 7.94569L21.6458 6.51968C22.0362 6.43466 22.3951 6.76878 22.3478 7.16554C22.1784 8.58935 21.9235 11.6117 22.3979 14.2358C23.0662 17.9377 24.4215 19.9373 25.3949 20.9427C25.5153 21.067 25.662 21.4427 25.0701 21.3126Z"
            fill="#00D6BC"
          />
          <path
            d="M25.7386 19.6008C25.4678 19.282 24.0895 16.2825 24.1723 13.7364C24.2298 12.0073 24.9156 9.60914 25.259 8.50642C25.3589 8.18536 25.7179 8.03185 26.0228 8.17381L29.8047 9.93518C30.1669 10.1039 30.2503 10.5884 29.976 10.879C29.2453 11.653 27.9966 13.0885 27.2277 14.5969C26.048 16.9096 25.957 18.5743 26.0716 19.5333C26.0857 19.6519 26.0093 19.9196 25.7386 19.6008Z"
            fill="#00D6BC"
          />
          <path
            d="M27.3062 18.6592C27.2949 18.4173 27.7244 16.5543 28.6633 15.4163C29.2693 14.6829 30.3484 13.8734 30.9246 13.4647C31.1303 13.3188 31.4135 13.3923 31.5294 13.6163L32.5253 15.5402C32.663 15.8064 32.4896 16.1329 32.1941 16.183C31.5691 16.289 30.581 16.5032 29.7596 16.892C28.4004 17.5349 27.7696 18.2659 27.4828 18.7462C27.4473 18.8055 27.3176 18.9012 27.3062 18.6592Z"
            fill="#00D6BC"
          />
          <g clip-path="url(#clip0_1_20366)">
            <path
              d="M40.6858 21.5119C39.8298 21.5119 39.0643 21.3009 38.3892 20.879C37.7261 20.4571 37.2017 19.8965 36.816 19.1973C36.4302 18.486 36.2373 17.7024 36.2373 16.8465C36.2373 16.0026 36.4422 15.231 36.8521 14.5318C37.2741 13.8206 37.8407 13.26 38.5519 12.8501C39.2632 12.4282 40.0649 12.2172 40.957 12.2172C41.8491 12.2172 42.6508 12.4221 43.3621 12.832C44.0733 13.2298 44.6339 13.7784 45.0438 14.4776C45.4657 15.1768 45.6767 15.9664 45.6767 16.8465V21.2949H43.9769V17.9857L44.5917 17.5155C44.5917 18.263 44.4229 18.9381 44.0854 19.5409C43.7599 20.1436 43.3018 20.6258 42.7111 20.9875C42.1324 21.3371 41.4573 21.5119 40.6858 21.5119ZM40.957 19.8121C41.5116 19.8121 42.0119 19.6795 42.4579 19.4143C42.904 19.1491 43.2536 18.7934 43.5067 18.3474C43.7599 17.8893 43.8865 17.395 43.8865 16.8646C43.8865 16.3221 43.7599 15.8278 43.5067 15.3817C43.2536 14.9357 42.904 14.58 42.4579 14.3148C42.0119 14.0376 41.5116 13.8989 40.957 13.8989C40.4025 13.8989 39.9022 14.0376 39.4561 14.3148C39.0221 14.58 38.6725 14.9357 38.4073 15.3817C38.1541 15.8278 38.0275 16.3221 38.0275 16.8646C38.0275 17.395 38.1541 17.8893 38.4073 18.3474C38.6725 18.7934 39.0221 19.1491 39.4561 19.4143C39.9022 19.6795 40.4025 19.8121 40.957 19.8121Z"
              fill="#334155"
            />
            <path d="M47.8795 8.36548H49.6697V21.2949H47.8795V8.36548Z" fill="#334155" />
            <path
              d="M56.0037 21.4938C55.1116 21.4938 54.3099 21.2949 53.5987 20.8971C52.8874 20.4872 52.3268 19.9327 51.9169 19.2334C51.5071 18.5222 51.3021 17.7145 51.3021 16.8103C51.3021 15.9664 51.489 15.1949 51.8627 14.4957C52.2364 13.7844 52.7608 13.2238 53.4359 12.8139C54.111 12.392 54.8946 12.181 55.7867 12.181C56.6788 12.181 57.4443 12.3799 58.0833 12.7778C58.7343 13.1635 59.2346 13.694 59.5842 14.3691C59.9458 15.0321 60.1267 15.7735 60.1267 16.5933V17.3166H52.6945L53.02 16.5933C52.9838 17.2202 53.0863 17.7808 53.3274 18.275C53.5685 18.7693 53.9181 19.1671 54.3762 19.4685C54.8343 19.7579 55.3708 19.9025 55.9856 19.9025C56.5402 19.9025 57.0405 19.782 57.4865 19.5409C57.9446 19.2997 58.3063 18.9381 58.5715 18.4559L59.9458 19.1611C59.5601 19.9206 59.0236 20.4993 58.3364 20.8971C57.6493 21.2949 56.8717 21.4938 56.0037 21.4938ZM53.1104 16.1593H58.3364C58.3123 15.6891 58.1858 15.2732 57.9567 14.9116C57.7397 14.5499 57.4383 14.2726 57.0525 14.0797C56.6788 13.8869 56.2509 13.7904 55.7686 13.7904C55.2744 13.7904 54.8343 13.8929 54.4486 14.0978C54.0749 14.3028 53.7735 14.5861 53.5444 14.9477C53.3274 15.3094 53.1828 15.7133 53.1104 16.1593Z"
              fill="#334155"
            />
            <path
              d="M65.5371 25.5806C64.5847 25.5806 63.7288 25.3757 62.9693 24.9658C62.2098 24.5559 61.6251 23.9592 61.2152 23.1756L62.7161 22.3618C62.9693 22.844 63.3369 23.2238 63.8192 23.5011C64.3014 23.7904 64.862 23.9351 65.5009 23.9351C66.1278 23.9351 66.6703 23.7904 67.1284 23.5011C67.5985 23.2238 67.9662 22.826 68.2315 22.3076C68.4967 21.8012 68.6293 21.2045 68.6293 20.5173V18.6548L69.0814 18.2389C69.0814 18.7693 68.9367 19.2817 68.6474 19.7759C68.3701 20.2582 67.9602 20.656 67.4177 20.9694C66.8873 21.2708 66.2423 21.4215 65.4828 21.4215C64.651 21.4215 63.8915 21.2226 63.2043 20.8248C62.5292 20.4149 61.9867 19.8664 61.5769 19.1792C61.179 18.48 60.9801 17.6964 60.9801 16.8284C60.9801 15.9845 61.1851 15.213 61.5949 14.5137C62.0169 13.8145 62.5835 13.26 63.2948 12.8501C64.006 12.4282 64.8077 12.2172 65.6998 12.2172C66.5919 12.2172 67.3936 12.4221 68.1049 12.832C68.8161 13.2298 69.3767 13.7784 69.7866 14.4776C70.2085 15.1768 70.4195 15.9664 70.4195 16.8465V20.4993C70.4195 21.524 70.2085 22.4161 69.7866 23.1756C69.3647 23.9471 68.786 24.5378 68.0506 24.9477C67.3152 25.3697 66.4774 25.5806 65.5371 25.5806ZM65.6817 19.7398C66.2242 19.7398 66.7185 19.6132 67.1645 19.36C67.6106 19.0948 67.9602 18.7392 68.2134 18.2931C68.4786 17.835 68.6112 17.3407 68.6112 16.8103C68.6112 16.2678 68.4786 15.7796 68.2134 15.3456C67.9602 14.8995 67.6106 14.5499 67.1645 14.2967C66.7185 14.0436 66.2242 13.917 65.6817 13.917C65.1392 13.917 64.645 14.0436 64.1989 14.2967C63.7649 14.5499 63.4153 14.8995 63.1501 15.3456C62.8849 15.7796 62.7523 16.2678 62.7523 16.8103C62.7523 17.3407 62.8849 17.835 63.1501 18.2931C63.4153 18.7392 63.7649 19.0948 64.1989 19.36C64.645 19.6132 65.1392 19.7398 65.6817 19.7398Z"
              fill="#334155"
            />
            <path
              d="M74.0508 21.2949H72.2606V16.0146C72.2606 15.2913 72.3932 14.6464 72.6584 14.0797C72.9357 13.5131 73.3335 13.0671 73.8519 12.7416C74.3824 12.4161 75.0333 12.2534 75.8049 12.2534C76.0942 12.2534 76.3715 12.2835 76.6367 12.3438C76.914 12.392 77.1672 12.4703 77.3962 12.5788V14.351C77.1792 14.2184 76.9441 14.1219 76.691 14.0617C76.4499 14.0014 76.2087 13.9712 75.9676 13.9712C75.3769 13.9712 74.9068 14.1641 74.5572 14.5499C74.2196 14.9236 74.0508 15.436 74.0508 16.087V21.2949Z"
              fill="#334155"
            />
            <path
              d="M81.8885 21.5119C81.0325 21.5119 80.267 21.3009 79.5919 20.879C78.9288 20.4571 78.4044 19.8965 78.0187 19.1973C77.6329 18.486 77.44 17.7024 77.44 16.8465C77.44 16.0026 77.6449 15.231 78.0548 14.5318C78.4768 13.8206 79.0434 13.26 79.7546 12.8501C80.4659 12.4282 81.2676 12.2172 82.1597 12.2172C83.0518 12.2172 83.8535 12.4221 84.5648 12.832C85.276 13.2298 85.8366 13.7784 86.2465 14.4776C86.6684 15.1768 86.8794 15.9664 86.8794 16.8465V21.2949H85.1796V17.9857L85.7944 17.5155C85.7944 18.263 85.6256 18.9381 85.2881 19.5409C84.9626 20.1436 84.5045 20.6258 83.9138 20.9875C83.3351 21.3371 82.66 21.5119 81.8885 21.5119ZM82.1597 19.8121C82.7142 19.8121 83.2146 19.6795 83.6606 19.4143C84.1067 19.1491 84.4563 18.7934 84.7094 18.3474C84.9626 17.8893 85.0892 17.395 85.0892 16.8646C85.0892 16.3221 84.9626 15.8278 84.7094 15.3817C84.4563 14.9357 84.1067 14.58 83.6606 14.3148C83.2146 14.0376 82.7142 13.8989 82.1597 13.8989C81.6052 13.8989 81.1049 14.0376 80.6588 14.3148C80.2248 14.58 79.8752 14.9357 79.61 15.3817C79.3568 15.8278 79.2302 16.3221 79.2302 16.8646C79.2302 17.395 79.3568 17.8893 79.61 18.3474C79.8752 18.7934 80.2248 19.1491 80.6588 19.4143C81.1049 19.6795 81.6052 19.8121 82.1597 19.8121Z"
              fill="#334155"
            />
            <rect x="52.709" y="15.8765" width="6.1932" height="0.658851" fill="#334155" />
          </g>
          <defs>
            <clipPath id="clip0_1_20366">
              <rect
                width="55.3435"
                height="17.2619"
                fill="white"
                transform="translate(34.6562 8.36548)"
              />
            </clipPath>
          </defs>
        </svg>
